<?xml version="1.0" encoding="UTF-8"?>
<svg width="32px" height="32px" viewBox="0 0 32 32" version="1.1" xmlns="http://www.w3.org/2000/svg" xmlns:xlink="http://www.w3.org/1999/xlink">
    <title>Lightspeed Retail Icon</title>
    <defs>
        <path d="M11.6709254,2 L12.5908012,3.60613251 C12.7806169,3.93830991 12.7806169,4.34349334 12.5908012,4.67567074 L7.12265012,14.2175579 L9.70341303,18.7183793 C10.3166636,19.806169 11.6964775,20.1858003 12.7842672,19.5725497 C13.1419967,19.3717832 13.4376711,19.0761088 13.6384377,18.7183793 L16.2192006,14.2175579 L15.5219931,13.0020077 L12.5944515,18.108779 C12.3024275,18.6198211 11.6490235,18.7913853 11.1416317,18.4993612 C10.9810184,18.4044534 10.8459573,18.2693922 10.7510495,18.108779 L8.52436576,14.2175579 L13.5982844,5.35827706 L14.5181602,6.96440956 C14.7079759,7.29658697 14.7079759,7.7054207 14.5181602,8.0375981 L10.9737178,14.2175579 L11.6709254,15.4331082 L15.5219931,8.71655412 L18.0480015,13.1188173 C18.4349334,13.7977733 18.4349334,14.630042 18.0480015,15.308998 L15.4781895,19.7842672 C15.0839569,20.4705238 13.8720569,22 11.6636247,22 C9.45519255,22 8.25059317,20.4705238 7.85636065,19.7842672 L5.29019894,15.308998 C4.90326702,14.630042 4.90326702,13.794123 5.29019894,13.115167 L11.6709254,2" id="path-1"></path>
    </defs>
    <g id="Lightspeed-Retail-Icon" stroke="none" stroke-width="1" fill="none" fill-rule="evenodd">
        <g id="✱-/-Color-/-Products-/-Bloomberg" fill="#000000">
            <rect id="Rectangle-11-Copy-2" x="0" y="0" width="32" height="32"></rect>
        </g>
        <g id="Icon-/-Favs-/-Products-/-Clover-/-Inactive-Copy" transform="translate(4.000000, 4.000000)">
            <mask id="mask-2" fill="white">
                <use xlink:href="#path-1"></use>
            </mask>
            <g id="Fill-1"></g>
            <g id="Group" mask="url(#mask-2)" fill="#FFFFFF">
                <g id="↳-Color">
                    <rect id="Rectangle-13" x="0" y="0" width="24" height="24"></rect>
                </g>
            </g>
        </g>
    </g>
</svg>
