<?xml version="1.0" encoding="UTF-8"?>
<svg width="110px" height="62px" viewBox="0 0 110 62" version="1.1" xmlns="http://www.w3.org/2000/svg" xmlns:xlink="http://www.w3.org/1999/xlink">
    <title>Lightspeed Retail Thumbnail</title>
    <defs>
        <path d="M15.5612338,2.66666667 L16.787735,4.80817667 C17.0408225,5.25107988 17.0408225,5.79132445 16.787735,6.23422766 L9.49686682,18.9567439 L12.937884,24.957839 C13.7555515,26.4082253 15.5953033,26.9144004 17.0456896,26.096733 C17.5226623,25.8290442 17.9168948,25.4348117 18.1845836,24.957839 L21.6256008,18.9567439 L20.6959908,17.3360102 L16.7926021,24.1450386 C16.4032366,24.8264282 15.5320314,25.0551804 14.8555089,24.6658149 C14.6413579,24.5392712 14.4612764,24.3591896 14.3347326,24.1450386 L11.365821,18.9567439 L18.1310458,7.14436941 L19.357547,9.28587942 C19.6106345,9.72878262 19.6106345,10.2738943 19.357547,10.7167975 L14.6316238,18.9567439 L15.5612338,20.5774776 L20.6959908,11.6220722 L24.0640019,17.4917564 C24.5799112,18.3970311 24.5799112,19.5067226 24.0640019,20.4119973 L20.6375859,26.3790229 C20.1119426,27.2940318 18.4960759,29.3333333 15.5514997,29.3333333 C12.6069234,29.3333333 11.0007909,27.2940318 10.4751475,26.3790229 L7.05359859,20.4119973 C6.53768936,19.5067226 6.53768936,18.392164 7.05359859,17.4868893 L15.5612338,2.66666667" id="path-1"></path>
    </defs>
    <g id="Lightspeed-Retail-Thumbnail" stroke="none" stroke-width="1" fill="none" fill-rule="evenodd">
        <g id="✱-/-Color-/-Products-/-Bloomberg" fill="#000000">
            <rect id="Rectangle-11-Copy-2" x="0" y="0" width="110" height="62"></rect>
        </g>
        <g id="Icon-/-Favs-/-Products-/-Clover-/-Inactive-Copy" transform="translate(39.000000, 15.000000)">
            <mask id="mask-2" fill="white">
                <use xlink:href="#path-1"></use>
            </mask>
            <g id="Fill-1"></g>
            <g id="Group" mask="url(#mask-2)" fill="#FFFFFF">
                <g id="↳-Color">
                    <rect id="Rectangle-13" x="0" y="0" width="32" height="32"></rect>
                </g>
            </g>
        </g>
    </g>
</svg>
